<svg width="495" height="195" xmlns="http://www.w3.org/2000/svg">
  <rect width="495" height="195" rx="10" fill="#09090b" stroke="#1f1f28" stroke-width="1.5"/>
  <text x="25" y="35" fill="#c9a84c" font-size="16" font-weight="bold" font-family="monospace">Top Languages · AiswaryaRJ</text>
  <line x1="25" y1="45" x2="470" y2="45" stroke="#1f1f28" stroke-width="1"/>
  <text x="25" y="68" fill="#3d3c4e" font-size="11" font-family="monospace">based on bytes of code</text>
  <rect x="25" y="80" width="162" height="8" rx="4" fill="#3572A5"/><rect x="189" y="80" width="152" height="8" rx="4" fill="#3178c6"/><rect x="343" y="80" width="60" height="8" rx="4" fill="#f1e05a"/><rect x="405" y="80" width="32" height="8" rx="4" fill="#e34c26"/><rect x="439" y="80" width="30" height="8" rx="4" fill="#663399"/><rect x="471" y="80" width="6" height="8" rx="4" fill="#c6538c"/>
  <circle cx="25" cy="115" r="5" fill="#3572A5"/><text x="37" y="119" fill="#7c7a8e" font-size="12" font-family="monospace">Python 36.4%</text><circle cx="185" cy="115" r="5" fill="#3178c6"/><text x="197" y="119" fill="#7c7a8e" font-size="12" font-family="monospace">TypeScript 34.3%</text><circle cx="345" cy="115" r="5" fill="#f1e05a"/><text x="357" y="119" fill="#7c7a8e" font-size="12" font-family="monospace">JavaScript 13.6%</text><circle cx="25" cy="145" r="5" fill="#e34c26"/><text x="37" y="149" fill="#7c7a8e" font-size="12" font-family="monospace">HTML 7.4%</text><circle cx="185" cy="145" r="5" fill="#663399"/><text x="197" y="149" fill="#7c7a8e" font-size="12" font-family="monospace">CSS 6.8%</text><circle cx="345" cy="145" r="5" fill="#c6538c"/><text x="357" y="149" fill="#7c7a8e" font-size="12" font-family="monospace">SCSS 1.5%</text>
</svg>